<?xml version="1.0" encoding="utf-8"?>
<!-- Generator: Adobe Illustrator 16.0.0, SVG Export Plug-In . SVG Version: 6.00 Build 0)  -->
<!DOCTYPE svg PUBLIC "-//W3C//DTD SVG 1.1//EN" "http://www.w3.org/Graphics/SVG/1.1/DTD/svg11.dtd">
<svg version="1.1" id="Layer_1" xmlns="http://www.w3.org/2000/svg" xmlns:xlink="http://www.w3.org/1999/xlink" x="0px" y="0px"
	 width="1021.833px" height="511.875px" viewBox="0 0 1021.833 511.875" enable-background="new 0 0 1021.833 511.875"
	 xml:space="preserve">
<g id="Layer_2_1_">
	<g>
		<path fill="#CEFF00" d="M815.218,73.323c1.186,1.733,2.641,3.481,4.246,5.231c3.037,3.307,6.645,6.623,10.189,9.874
			c2.803,2.568,5.645,5.177,8.232,7.806c2.861,2.906,5.41,5.836,7.232,8.764h50.998h1.148l49.867-31.675h-1.631H815.218z"/>
		<polygon fill="#CEFF00" points="458.239,66.67 472.206,43.805 478.597,33.341 10.081,33.341 67.941,66.67 75.764,66.67 		"/>
		<polygon fill="#CEFF00" points="1006.626,33.341 1005.654,33.341 967.595,33.341 536.298,33.341 534.935,33.341 532.259,33.341 
			537.804,42.419 552.621,66.67 555.294,66.67 555.484,66.67 947.796,66.67 948.765,66.67 953.292,66.67 1011.152,33.341 		"/>
		<path fill="#CEFF00" d="M224.371,105.511l0.294-0.465h210.662c0.98-2.467,4.903-9.54,18.791-31.724H87.533H73.829l49.944,31.724
			h41.031h26.114l-4.59,6.414l-25.408,35.505c-29.382,41.059-58.764,82.118-88.156,123.163h47.344l23.837-37.641
			c23.734-37.479,47.473-74.959,71.218-112.438C218.232,115.203,221.299,110.356,224.371,105.511z"/>
		<path fill="#CEFF00" d="M286.083,110.708h-34.137c-3.292,5.784-6.584,11.568-9.876,17.352
			c-13.921,24.463-27.845,48.926-41.77,73.386c-13.033,22.894-26.065,45.788-39.094,68.681h47.188l22.842-46.869
			c13.963-28.649,27.926-57.304,41.889-85.958C277.442,128.436,281.762,119.572,286.083,110.708z"/>
		<path fill="#CEFF00" d="M373.489,148.71c2.417-9.015,3.804-16.356,4.124-21.82c0.3-5.169-0.615-9.179-2.722-11.917
			c-2.092-2.723-5.506-4.543-10.146-5.413c-4.849-0.908-11.314-1.368-19.217-1.368c-7.911,0-14.721,0.461-20.237,1.372
			c-5.401,0.891-10.205,2.782-14.276,5.62c-4.097,2.855-7.95,6.999-11.454,12.315c-2.667,4.048-5.488,9.133-8.417,15.16
			c-1.033,2.125-2.079,4.362-3.138,6.72l-4.755,10.593c-16.484,36.725-32.967,73.445-49.455,110.155h45.764l14.602-39.499h12.965
			l-13.844,39.499h47.664l27.974-104.372L373.489,148.71z M320.268,193.121h-12.247l15.135-40.949l1.312-3.55
			c0.864-2.335,1.71-3.894,2.587-4.765c0.968-0.958,2.597-1.423,4.981-1.423c1.667,0,3.939,0.192,4.421,1.854
			c0.179,0.62,0.288,1.813-0.835,5.011l-2.086,5.955L320.268,193.121z"/>
		<path fill="#CEFF00" d="M453.867,134.931c-1.113,13.573-2.264,27.607-3.397,38.166l-0.096,0.893h-2.775l-0.132-0.846
			c-3.233-20.776-5.932-41.778-8.02-62.435l-37.312-0.001l-14.038,60.729l-0.051,0.22c-7.625,32.987-15.25,65.97-22.87,98.952
			h38.898l5.784-35.395c2.979-18.23,5.959-36.463,8.937-54.696c0.295-1.809,0.591-3.617,0.886-5.425l0.138-0.839h2.84l0.04,0.958
			c0.091,2.179,0.2,4.365,0.301,6.548c1.365,29.377,3.624,59.066,6.747,88.368h49.507c1.042-26.451,2.1-46.124,3.122-65.159
			c0.103-1.892,0.204-3.794,0.306-5.705c0.934-17.421,1.891-35.87,2.834-59.925l-28.531-39.912
			C455.943,109.606,454.888,122.464,453.867,134.931z"/>
		<path fill="#CEFF00" d="M731.453,232.001c-2.734-6.763-5.465-13.528-8.199-20.292c-10.084-24.954-20.166-49.908-30.246-74.863
			l-10.559-26.139h-33.371l17.924,55.292c4.758,14.679,9.516,29.356,14.273,44.035c2.301,7.094,4.6,14.189,6.898,21.284
			c0.805,2.477,0.971,4.102,0.525,5.115c-0.523,1.195-2.117,1.729-5.168,1.729c-2.789,0-4.637-0.458-5.646-1.401
			c-0.943-0.882-1.756-2.466-2.479-4.842l-6.828-22.391l-30.137-98.82h-17.42h-16.912l7.262,32.545
			c4.803,21.524,9.604,43.047,14.402,64.571c1.754,7.862,3.51,15.723,5.262,23.585c2.08,9.312,4.396,16.479,7.088,21.911
			c2.646,5.345,6.301,9.481,10.859,12.298c4.605,2.846,10.607,4.745,17.836,5.647c7.326,0.914,16.605,1.377,27.576,1.377
			c10.967,0,19.949-0.463,26.695-1.377c6.572-0.889,11.293-2.74,14.035-5.502c2.658-2.683,3.66-6.677,2.977-11.87
			C737.402,248.554,735.164,241.188,731.453,232.001z"/>
		<path fill="#CEFF00" d="M737.882,110.708h-34.174l29.293,65.536c5.441,12.172,10.879,24.344,16.32,36.517
			c8.547,19.122,17.096,38.245,25.639,57.366h47.223c-9.75-18.435-19.5-36.877-29.25-55.314
			C774.583,180.113,756.23,145.415,737.882,110.708z"/>
		<path fill="#CEFF00" d="M929.88,232.23c-5.027-6.669-10.059-13.334-15.09-20l-9.217-12.214
			c-3.855-5.104-7.332-9.538-10.338-13.178c-2.914-3.524-6.021-6.792-9.234-9.71c-3.148-2.859-6.68-5.488-10.494-7.815
			c-3.865-2.355-8.354-4.75-13.336-7.124c-0.262-0.125-0.52-0.25-0.783-0.375c-3.121-1.47-6.605-3.022-10.834-4.898
			c-3.971-1.759-7.693-3.394-11.188-4.904c-3.664-1.582-6.582-2.813-8.918-3.763c-3.115-1.271-4.461-1.876-4.799-2.032
			c-5.912-2.717-9.332-4.514-11.434-6.008c-2.33-1.658-4.65-4.247-6.902-7.694l-13.313-20.385c-2.02-3.093-2.324-4.236-2.365-4.887
			c-0.031-0.491,0.131-0.94,0.465-1.297c0.584-0.623,1.615-0.9,3.348-0.9c2.174,0,3.789,0.442,4.938,1.352
			c1.051,0.835,2.307,2.349,3.84,4.627c2.824,4.205,4.74,7.169,6.596,10.037c1.791,2.77,3.643,5.632,6.314,9.617
			c12.428,1.359,31.469,3.497,38.641,4.599l-17.381-23.092c-6.615-8.854-12.369-15.824-18.109-21.938
			c-4.969-5.295-9.986-9.469-14.916-12.408c-4.793-2.859-9.896-4.763-15.168-5.659c-5.373-0.913-11.824-1.375-19.178-1.375
			c-7.477,0-13.328,0.459-17.393,1.365c-3.797,0.845-6.094,2.528-7.023,5.145c-0.961,2.704-0.418,6.701,1.609,11.881
			c2.158,5.501,5.865,12.866,11.02,21.89l11.213,19.63c2.748,4.814,5.137,8.792,7.303,12.161c2.178,3.39,4.451,6.44,6.764,9.068
			c2.32,2.635,4.932,5.09,7.758,7.297c2.627,2.052,6.045,4.204,10.447,6.577c3.582,1.929,7.338,3.781,11.166,5.506
			c4.277,1.927,8.77,3.87,13.344,5.775c4.063,1.69,8.09,3.34,11.965,4.903c3.076,1.242,5.195,2.062,6.277,2.48l0.41,0.159
			c1.227,0.474,2.396,0.971,3.508,1.479c2.264,1.035,4.252,2.118,5.77,3.16c2.059,1.413,3.99,3.449,5.742,6.053
			c8.012,11.908,16.02,23.821,24.021,35.734c2.113,3.149,2.328,4.322,2.262,5.054c-0.184,2.039-3.453,2.039-4.85,2.039
			c-2.74,0-4.682-0.43-5.936-1.314c-1.182-0.833-2.49-2.362-4-4.674l-25.508-39.059h-1.236H807.16l13.176,22.988l8.613,15.026
			c5.449,9.499,10.342,16.774,14.963,22.241c4.572,5.407,9.715,9.557,15.287,12.333c5.594,2.785,12.229,4.656,19.717,5.563
			c7.547,0.914,16.832,1.379,27.6,1.379c11.373,0,20.447-0.463,26.977-1.375c6.271-0.877,10.316-2.674,12.025-5.34
			c1.674-2.598,1.252-6.543-1.252-11.729C941.666,248.828,936.828,241.437,929.88,232.23z"/>
		<path fill="#CEFF00" d="M602.312,197.217l0.027-0.001l-0.842-4.359l-0.201-0.657l-2.49-11.975l-44.729-0.38l1.641,17.161
			l7.535,0.025l0.918,8.35l3.516,31.994l-0.795,0.241c-1.215,0.367-3.271,0.546-6.295,0.546c-3.094,0-4.859-0.406-5.725-1.315
			c-0.813-0.856-1.301-2.487-1.537-5.132l-2.395-26.857l-4.979-55.798c-0.219-2.435-0.074-4.015,0.451-4.974
			c0.617-1.127,2.09-1.652,4.635-1.652c2.445,0,4.01,0.502,4.781,1.535c0.682,0.916,1.139,2.517,1.395,4.896l1.865,17.225h37.398
			l-3.172-16.933c-1.689-9.023-3.656-16.413-5.844-21.963c-2.104-5.344-4.842-9.442-8.135-12.182
			c-3.279-2.729-7.471-4.561-12.461-5.446c-5.012-0.889-11.367-1.349-18.896-1.37l-39.565,56.073
			c0.098,13.694,0.199,23.685,0.3,33.698c0.019,1.74,0.035,3.481,0.053,5.242c0.083,8.33,0.166,17.111,0.248,28.415
			c0.065,8.827,0.854,15.975,2.348,21.245c1.474,5.206,4.297,9.296,8.391,12.157c4.234,2.961,10.221,4.978,17.791,5.994
			c10.227,1.373,20.633,1.594,30.355,1.627l2.059,0.004c10.428,0,20.254-0.297,29.203-0.885c7.648-0.5,13.422-1.006,16.83-1.474
			l-11.857-63.328L602.312,197.217z"/>
		<polygon fill="#CEFF00" points="559.468,73.298 577.968,105.044 736.878,105.044 749.39,105.044 746.626,101.038 741.994,89.013 
			741.568,87.909 741.203,79.677 741.931,73.699 		"/>
	</g>
	<g>
		<path d="M788.966,478.15c1.465-1.943,3.268-4.286,5.346-6.964c2.082-2.676,4.396-5.72,6.984-8.989
			c1.063-1.348,2.168-2.751,3.299-4.187c1.619-2.054,3.297-4.183,5.039-6.392c2.947-3.763,6.133-7.667,9.389-11.739
			c1.09-1.328,2.207-2.688,3.318-4.044c2.23-2.719,4.488-5.469,6.783-8.266c2.736-3.333,5.51-6.711,8.287-10.097
			c0.779-0.949,1.559-1.896,2.338-2.849c14.111-17.191,28.227-34.389,38.809-47.281c7.361-8.939,13.014-15.803,15.785-19.17
			c0.316-0.384,0.584-0.709,0.824-1c0.371-0.451,0.646-0.786,0.822-1H778.826h-8.74H746.41l-20.818,38.846H280.75l-20.816-38.844
			h-1.649h-8.74H110.295c0.286,0.329,0.575,0.662,0.869,1c0.287,0.33,0.575,0.661,0.869,1c12.71,14.631,32.148,37.002,51.594,59.384
			c6.146,7.081,12.292,14.16,18.227,20.995c2.037,2.348,4.05,4.665,6.027,6.943c3.817,4.505,7.548,8.822,11.013,12.979
			c2.805,3.347,5.479,6.538,8.004,9.552c0.604,0.721,1.207,1.439,1.792,2.139c3.039,3.615,5.769,6.979,8.218,9.934
			c2.446,2.957,4.568,5.546,6.298,7.689c3.463,4.288,5.442,6.738,5.442,6.738l-0.077,0.065l0.003,0.003h105.431l0.657,1.229h0.013
			l0.668,1.247h0.015l0.668,1.247h0.013l0.669,1.248h0.013l0.668,1.245h0.014l0.669,1.248h0.013l0.668,1.247h0.013l0.668,1.247
			h0.014l0.669,1.248h0.013l0.668,1.247h0.013l0.668,1.247h0.014l0.669,1.247h0.013l0.668,1.247h0.014l0.668,1.247h0.014
			l0.668,1.247h0.013l0.669,1.248h0.014l0.668,1.247h0.014l0.668,1.247h0.013l0.668,1.247h0.014l0.67,1.248h0.013l0.668,1.247h0.013
			l0.669,1.246h157.15h0.565h157.157l14.693-27.423h105.703l0.271-0.217l-0.154-0.123
			C784.355,484.254,786.033,482.033,788.966,478.15z M333.711,484.232c0,0-0.934-1.494-2.51-4.142
			c-0.8-1.314-1.748-2.929-2.82-4.784c-1.069-1.856-2.313-3.934-3.601-6.233c-1.293-2.299-2.695-4.79-4.179-7.424
			c-0.686-1.205-1.37-2.454-2.063-3.729c-0.818-1.503-1.647-3.042-2.506-4.605c-2.953-5.563-6.027-11.519-9.129-17.479
			c-0.146-0.279-0.289-0.557-0.436-0.836c-6.512-12.471-13.024-24.938-17.908-34.287c-3.267-6.294-5.795-11.167-7.106-13.691
			c-0.204-0.395-0.376-0.726-0.519-1c-0.305-0.588-0.475-0.914-0.475-0.914l0.175-0.093c0,0,0.198,0.355,0.559,1.007
			c0.154,0.276,0.342,0.613,0.556,1c1.4,2.52,4.035,7.261,7.426,13.362c5.101,9.233,11.901,21.549,18.701,33.859
			c0.294,0.532,0.589,1.062,0.884,1.593c3.114,5.616,6.229,11.2,9.105,16.492c1.006,1.917,2.005,3.773,2.962,5.59
			c0.501,0.951,0.995,1.896,1.464,2.821c1.378,2.688,2.681,5.231,3.883,7.581c1.209,2.347,2.252,4.526,3.211,6.443
			c0.956,1.919,1.776,3.602,2.434,4.993c1.335,2.773,2.064,4.379,2.064,4.379L333.711,484.232z M714.046,407.383
			c-4.121,7.891-9.4,17.998-14.861,28.454c-1.012,1.938-2.029,3.884-3.047,5.833c-2.869,5.504-5.711,11.004-8.467,16.23
			c-0.365,0.692-0.734,1.399-1.098,2.083c-1.588,2.89-3.072,5.708-4.568,8.335c-1.479,2.635-2.885,5.125-4.178,7.424
			c-1.285,2.304-2.529,4.377-3.604,6.233c-1.07,1.856-2.02,3.47-2.818,4.784c-1.576,2.646-2.51,4.142-2.51,4.142l-0.178-0.096
			c0,0,0.73-1.604,2.066-4.379c0.654-1.396,1.475-3.073,2.432-4.993c0.959-1.917,2.002-4.102,3.211-6.443
			c1.203-2.35,2.506-4.893,3.883-7.581c1.365-2.694,2.896-5.491,4.43-8.411c0.195-0.361,0.402-0.735,0.602-1.101
			c2.984-5.471,6.193-11.217,9.387-16.984c0.938-1.695,1.871-3.39,2.805-5.076c5.838-10.567,11.5-20.821,15.896-28.783
			c5.125-9.224,8.541-15.368,8.541-15.368l0.176,0.092C722.146,391.776,718.906,398.02,714.046,407.383z"/>
		<path d="M476.23,320.744c7.104,0,10.656,0,17.763,0c-3.828-8.744-5.863-13.116-10.175-21.861
			C480.542,307.628,479.023,312,476.23,320.744z"/>
		<path d="M1021.431,310.609L881.3,140.087l0.277-0.176h-0.422l-0.58-0.706l2.115-1.341l-2.107-0.002l3.225-2.045l-2.109-0.002
			l3.229-2.045l-2.109-0.002l3.229-2.048l-2.111-0.002l3.229-2.045l-2.109-0.002l3.227-2.045l-2.111-0.002l3.23-2.046l-2.111-0.002
			l3.229-2.045l-2.109-0.002l3.229-2.046l-1.473-0.001L1006.57,38.29l12.063-6.948H528.693l6.799,11.127l-2.488,0.052L507.049,0.325
			v42.744l-4,0.084V0.325l-26.685,43.393l-1.785,0.038l7.583-12.414H2.603l64.805,37.329h11.895l4.692,2.652H66.95l1.743,1.107
			l82.428,62.726L6.938,310.609h0.536l150.125,147.466l37.529-0.035c0-0.001-0.001-0.001-0.001-0.002
			c-0.291-0.311-2.239-2.383-5.492-5.849c-1.768-1.882-3.894-4.183-6.32-6.831c-2.395-2.619-5.127-5.551-8.046-8.788
			c-0.035-0.038-0.068-0.074-0.103-0.112c-2.963-3.282-6.174-6.84-9.569-10.6c-3.407-3.751-6.923-7.771-10.603-11.896
			c-7.254-8.342-14.992-17.237-22.73-26.135c-23.005-26.476-46-52.937-56.284-64.771c-1.252-1.44-2.312-2.658-3.164-3.64
			c-1.56-1.795-2.425-2.791-2.425-2.791l0.151-0.131c0,0,1.193,1.333,3.327,3.716c0.968,1.081,2.121,2.368,3.458,3.862
			c10.938,12.217,33.537,37.458,56.137,62.696c7.861,8.787,15.723,17.575,23.092,25.813c3.633,4.165,7.185,8.154,10.481,12.005
			c3.282,3.809,6.385,7.411,9.253,10.737c0.021,0.024,0.045,0.053,0.067,0.078c2.892,3.348,5.487,6.461,7.816,9.194
			c2.327,2.737,4.344,5.137,5.989,7.123c3.292,3.977,5.174,6.245,5.174,6.245l-0.079,0.069l-0.002,0.002h0.006l32.832,26.173
			c-0.778-0.856-2.656-2.924-5.42-5.967c-1.854-2.038-4.086-4.53-6.633-7.401c-2.544-2.873-5.448-6.087-8.555-9.646
			c-0.902-1.03-1.832-2.093-2.776-3.17c-2.313-2.641-4.74-5.412-7.272-8.306c-3.577-4.063-7.271-8.41-11.137-12.874
			c-1.875-2.218-3.782-4.474-5.71-6.755c-5.914-6.995-12.044-14.245-18.176-21.498c-19.272-22.813-38.542-45.624-51.042-60.422
			c-0.289-0.343-0.563-0.666-0.845-1c-0.436-0.517-0.873-1.033-1.291-1.527L70.152,316.15h214.178l19.617,42.039h398.45
			l19.613-42.039h214.18l-39.781,30.021h-0.162c-0.143,0.182-0.412,0.521-0.793,1c-0.227,0.285-0.488,0.616-0.793,1
			c-2.664,3.354-8.246,10.389-15.561,19.602c-10.395,13.052-24.25,30.451-38.105,47.854c-0.838,1.052-1.674,2.101-2.51,3.151
			c-2.764,3.469-5.518,6.926-8.234,10.34c-1.803,2.264-3.586,4.502-5.348,6.716c-1.436,1.802-2.861,3.594-4.262,5.351
			c-3.303,4.033-6.451,7.969-9.516,11.639c-1.477,1.779-2.91,3.511-4.303,5.188c-1.484,1.791-2.92,3.521-4.295,5.181
			c-2.654,3.215-5.148,6.114-7.328,8.712c-2.182,2.594-4.096,4.845-5.688,6.688c-3.125,3.616-4.926,5.696-4.988,5.771l32.854-26.341
			h0.008l-0.002-0.001l-0.072-0.062c0,0,1.777-2.261,4.887-6.215c1.555-1.979,3.459-4.361,5.656-7.088
			c2.131-2.631,4.498-5.619,7.127-8.822c0.025-0.03,0.049-0.06,0.074-0.091c0.064-0.079,0.127-0.155,0.191-0.235
			c2.631-3.212,5.477-6.687,8.475-10.354c0.115-0.141,0.227-0.274,0.34-0.414c3.117-3.829,6.48-7.804,9.922-11.946
			c6.98-8.203,14.434-16.952,21.881-25.702c14.895-17.499,29.793-34.998,40.969-48.123c5.695-6.671,10.418-12.201,13.689-16.033
			c1.211-1.418,2.223-2.602,3.008-3.521c1.264-1.479,1.957-2.291,1.957-2.291l0.146,0.128c0,0-0.439,0.534-1.254,1.521
			c-0.666,0.81-1.586,1.924-2.734,3.316c-3.207,3.891-8.176,9.918-14.283,17.328c-10.982,13.279-25.631,30.99-40.275,48.7
			c-7.322,8.854-14.645,17.711-21.512,26.014c-3.484,4.104-6.813,8.107-10.045,11.845c-0.195,0.229-0.385,0.448-0.58,0.675
			c-3.002,3.492-5.854,6.81-8.49,9.879c-2.805,3.271-5.432,6.227-7.729,8.864c-2.303,2.642-4.316,4.933-5.996,6.806
			c-3.07,3.432-4.918,5.496-5.211,5.823c0,0.002,0,0.002,0,0.002l53.24,0.051v-0.001h0.006l-0.002-0.003l150.305-147.463h0.357
			V310.609z M897.267,104.997h-1.148h-50.998c-1.822-2.927-4.371-5.857-7.232-8.764c-2.59-2.628-5.432-5.237-8.232-7.806
			c-3.547-3.25-7.152-6.566-10.189-9.874c-1.605-1.75-3.063-3.498-4.246-5.23h130.283h1.631L897.267,104.997z M794.001,112.131
			l13.313,20.385c2.252,3.448,4.572,6.036,6.902,7.694c2.102,1.494,5.521,3.291,11.434,6.008c0.338,0.155,1.684,0.761,4.799,2.032
			c2.336,0.951,5.254,2.182,8.918,3.763c3.494,1.511,7.217,3.145,11.188,4.904c4.229,1.876,7.711,3.428,10.834,4.898
			c0.266,0.125,0.521,0.25,0.783,0.375c4.982,2.374,9.471,4.769,13.336,7.124c3.814,2.327,7.346,4.956,10.494,7.815
			c3.213,2.918,6.32,6.186,9.234,9.71c3.006,3.64,6.482,8.074,10.338,13.178l9.217,12.214c5.031,6.666,10.063,13.331,15.09,20
			c6.947,9.206,11.785,16.598,14.381,21.969c2.504,5.186,2.928,9.131,1.254,11.729c-1.709,2.666-5.756,4.462-12.025,5.339
			c-6.527,0.912-15.605,1.375-26.979,1.375c-10.766,0-20.051-0.464-27.598-1.377c-7.488-0.906-14.123-2.777-19.717-5.563
			c-5.572-2.775-10.715-6.925-15.287-12.333c-4.621-5.467-9.514-12.742-14.963-22.241l-8.613-15.026l-13.176-22.988h38.498h1.234
			l25.51,39.059c1.51,2.312,2.816,3.84,4,4.674c1.254,0.884,3.193,1.314,5.936,1.314c1.396,0,4.666,0,4.85-2.039
			c0.066-0.731-0.146-1.904-2.262-5.054c-8.004-11.913-16.012-23.827-24.021-35.734c-1.752-2.604-3.686-4.64-5.742-6.053
			c-1.518-1.042-3.506-2.125-5.77-3.16c-1.109-0.508-2.281-1.005-3.508-1.479l-0.41-0.159c-1.082-0.418-3.201-1.238-6.277-2.48
			c-3.875-1.563-7.9-3.213-11.965-4.903c-4.574-1.905-9.064-3.848-13.346-5.775c-3.828-1.725-7.584-3.577-11.164-5.506
			c-4.402-2.373-7.82-4.524-10.447-6.577c-2.826-2.207-5.438-4.662-7.758-7.297c-2.313-2.627-4.588-5.678-6.764-9.068
			c-2.166-3.369-4.555-7.347-7.303-12.161l-11.213-19.63c-5.154-9.023-8.861-16.388-11.02-21.89
			c-2.027-5.18-2.57-9.178-1.609-11.881c0.93-2.617,3.229-4.299,7.023-5.145c4.064-0.906,9.916-1.365,17.393-1.365
			c7.354,0,13.805,0.462,19.178,1.375c5.27,0.896,10.375,2.799,15.168,5.659c4.93,2.938,9.947,7.113,14.916,12.408
			c5.74,6.114,11.494,13.084,18.107,21.938l17.383,23.092c-7.172-1.102-26.215-3.24-38.641-4.599
			c-2.674-3.984-4.523-6.847-6.314-9.617c-1.854-2.867-3.771-5.832-6.598-10.037c-1.531-2.278-2.789-3.792-3.838-4.627
			c-1.146-0.91-2.764-1.352-4.938-1.352c-1.732,0-2.766,0.277-3.348,0.9c-0.336,0.357-0.496,0.807-0.465,1.297
			C791.677,107.895,791.982,109.038,794.001,112.131z M741.568,87.909l0.426,1.104l4.633,12.025l2.764,4.006h-12.512h-158.91
			l-18.5-31.746l182.463,0.401l-0.729,5.979L741.568,87.909z M532.259,33.341h2.676h1.363h431.297h38.061h0.973h4.523L953.292,66.67
			h-4.525h-0.971H555.484h-0.189h-2.674l-14.816-24.25L532.259,33.341z M509.049,43.027V7.395l21.636,35.175l23.992,39.006
			l-45.628,27.329V43.027L509.049,43.027z M554.808,89.985l-44.009,62.322v-36.376L554.808,89.985z M478.744,43.667l22.306-36.272
			v35.801v65.709l-44.481-26.648l-1.137-0.681l0.93-1.511L478.744,43.667z M456.818,90.363l-0.268-0.377l0.367,0.217l43.631,25.729
			v36.375L456.818,90.363z M485.517,139.34c-0.944,24.055-1.901,42.503-2.834,59.925c-0.103,1.911-0.205,3.813-0.306,5.705
			c-1.022,19.035-2.08,38.708-3.122,65.159h-49.507c-3.124-29.302-5.382-58.991-6.747-88.368c-0.101-2.183-0.21-4.369-0.301-6.548
			l-0.04-0.958h-2.84l-0.138,0.839c-0.295,1.809-0.591,3.617-0.886,5.425c-2.977,18.233-5.957,36.466-8.937,54.696l-5.784,35.395
			h-38.898c7.62-32.982,15.245-65.965,22.87-98.952l0.051-0.22l14.038-60.729l37.312,0.001c2.088,20.657,4.785,41.659,8.02,62.435
			l0.132,0.846h2.775l0.096-0.893c1.134-10.559,2.284-24.593,3.397-38.166c1.021-12.467,2.077-25.325,3.119-35.502L485.517,139.34z
			 M75.764,66.67h-7.821L10.081,33.341h468.517l-6.392,10.464L458.239,66.67H75.764z M73.829,73.322h13.705h366.585
			c-13.889,22.184-17.811,29.257-18.791,31.724H224.666l-0.294,0.465c-3.071,4.846-6.138,9.692-9.208,14.539
			c-23.746,37.478-47.484,74.959-71.218,112.438l-23.837,37.641H72.763c29.392-41.044,58.773-82.104,88.156-123.163l25.408-35.505
			l4.59-6.414h-26.114h-41.031L73.829,73.322z M286.083,110.708c-4.319,8.864-8.639,17.728-12.959,26.592
			c-13.962,28.654-27.926,57.309-41.889,85.958l-22.842,46.869h-47.188c13.029-22.893,26.061-45.787,39.094-68.681
			c13.924-24.46,27.848-48.923,41.77-73.386c3.292-5.784,6.585-11.568,9.876-17.352H286.083z M11.173,308.605l140.855-171.406
			l0.685-0.833l6.116-7.443l0.718-0.874l-24.927-15.806l44.047-0.037L57.594,279.105h205.681l9.169,29.252L11.173,308.605z
			 M294.163,230.627l-14.602,39.499h-45.764c16.488-36.71,32.97-73.43,49.455-110.155l4.755-10.593
			c1.059-2.357,2.104-4.594,3.138-6.72c2.93-6.027,5.751-11.112,8.417-15.16c3.504-5.316,7.357-9.459,11.454-12.315
			c4.071-2.838,8.875-4.729,14.276-5.62c5.518-0.911,12.326-1.372,20.237-1.372c7.902,0,14.369,0.46,19.217,1.368
			c4.641,0.869,8.055,2.69,10.147,5.413c2.104,2.738,3.021,6.748,2.721,11.917c-0.32,5.464-1.708,12.805-4.124,21.82l-4.568,17.044
			l-27.974,104.372h-47.665l13.844-39.499L294.163,230.627L294.163,230.627z M344.01,343.016c-4.827,0-7.239,0-12.065,0
			c-10.943-19.035-21.886-38.072-32.828-57.106c15.64,0,31.279,0.002,46.919,0.002c1.881,4.241,2.819,6.362,4.701,10.604
			c-10.524,0-21.053,0-31.579-0.002c3.227,6.037,4.841,9.055,8.066,15.092c10.666,0,15.998,0.002,26.664,0.002
			c1.926,4.242,2.892,6.363,4.815,10.605c-10.324,0-15.486-0.001-25.813-0.001C337.338,330.531,339.562,334.691,344.01,343.016z
			 M379.547,343.016c-7.918-19.037-15.835-38.072-23.755-57.105c5.748,0,8.622,0,14.37,0c7.148,19.033,14.303,38.068,21.452,57.105
			C386.788,343.016,384.375,343.016,379.547,343.016z M441.894,343.016c-11.582-12.084-23.769-23.485-36.212-34.672
			c3.409,11.557,6.813,23.111,10.217,34.672c-4.77,0-7.149,0-11.921,0c-6.359-19.037-12.729-38.07-19.096-57.105
			c4.754,0,7.131,0,11.885,0c13.117,11.188,25.997,22.591,38.307,34.671c-2.479-11.56-4.959-23.113-7.439-34.673
			c5.674,0,8.514,0,14.188,0c3.325,19.033,6.65,38.07,9.979,57.107C447.838,343.016,445.858,343.016,441.894,343.016z
			 M503.116,343.016c-1.868-4.895-2.837-7.341-4.854-12.235c-10.077,0-15.113-0.003-25.189-0.003
			c-1.437,4.896-2.112,7.345-3.396,12.238c-4.945,0-7.417,0-12.361,0c4.896-19.508,11.412-38.396,18.734-57.105
			c5.675,0,8.514,0,14.188,0c9.524,18.658,18.029,37.545,25.54,57.105C510.711,343.016,508.178,343.016,503.116,343.016z
			 M511.367,252.868c-1.493-5.271-2.282-12.418-2.348-21.245c-0.081-11.304-0.164-20.085-0.247-28.415
			c-0.019-1.761-0.035-3.502-0.054-5.242c-0.101-10.014-0.202-20.004-0.3-33.698l39.565-56.073
			c7.529,0.021,13.887,0.481,18.896,1.37c4.99,0.885,9.184,2.717,12.461,5.446c3.293,2.74,6.029,6.838,8.135,12.182
			c2.188,5.55,4.152,12.94,5.844,21.963l3.172,16.933h-37.398l-1.865-17.225c-0.258-2.378-0.715-3.979-1.396-4.896
			c-0.77-1.033-2.334-1.535-4.781-1.535c-2.543,0-4.016,0.525-4.635,1.652c-0.525,0.958-0.668,2.539-0.451,4.974l4.979,55.798
			l2.396,26.857c0.234,2.645,0.725,4.276,1.537,5.132c0.863,0.909,2.629,1.315,5.725,1.315c3.021,0,5.08-0.179,6.295-0.546
			l0.795-0.241l-3.518-31.995l-0.918-8.35l-7.535-0.025l-1.641-17.161l44.729,0.38l2.49,11.975l0.201,0.657l0.842,4.359
			l-0.027,0.001l1.824,9.747l11.857,63.328c-3.406,0.468-9.18,0.975-16.828,1.475c-8.949,0.586-18.775,0.885-29.203,0.885
			l-2.061-0.004c-9.723-0.034-20.129-0.256-30.355-1.627c-7.568-1.019-13.556-3.035-17.79-5.994
			C515.664,262.164,512.84,258.073,511.367,252.868z M569.025,343.016c-3.965,0-5.941,0-9.904,0
			c-6.832-12.058-14.57-23.418-22.637-34.673c-1.119,11.558-2.236,23.112-3.355,34.673c-4.77,0-7.15,0-11.919,0
			c1.089-19.035,2.169-38.07,3.253-57.105c4.756,0,7.133,0,11.885,0c8.732,11.24,17.154,22.604,24.73,34.671
			c2.039-11.56,4.088-23.112,6.127-34.673c5.67,0,8.512,0,14.188,0C577.271,304.943,573.162,323.982,569.025,343.016z
			 M623.091,296.189c-3.732,0-7.322,0.773-10.721,2.324c-3.396,1.551-6.305,3.713-8.717,6.483c-2.41,2.772-4.1,5.935-5.111,9.467
			c-1.02,3.535-1.15,6.688-0.465,9.462c0.688,2.772,2.104,4.938,4.26,6.485c2.15,1.552,4.865,2.325,8.207,2.325
			c5.395,0,10.707-2.258,16.184-6.771c2.063,3.135,3.053,4.696,4.951,7.831c-3.93,3.316-8.061,5.849-12.42,7.587
			c-4.357,1.738-8.744,2.609-13.246,2.609c-5.297,0.002-9.662-1.264-13.26-3.792c-3.598-2.527-6.092-6.036-7.496-10.521
			c-1.4-4.486-1.488-9.563-0.094-15.218c1.396-5.653,4.002-10.729,7.979-15.216c3.98-4.484,8.883-7.992,14.695-10.521
			c5.813-2.528,12.004-3.795,18.406-3.795c5.395,0,9.975,0.871,13.635,2.609c3.66,1.74,6.27,4.241,7.803,7.506
			c-4.889,3.133-7.291,4.697-12.018,7.832C633.392,298.42,629.119,296.189,623.091,296.189z M701.978,296.512
			c-10.557,0-21.109-0.001-31.668,0.002c-2.381,4.961-3.566,7.438-5.949,12.396c10.785,0,16.18,0,26.965,0
			c-2.309,4.111-3.461,6.168-5.77,10.279c-10.453,0-15.682,0-26.135,0c-2.537,5.287-3.809,7.933-6.346,13.218
			c9.799,0.003,19.594,0.003,29.389,0.003c-2.438,4.242-3.658,6.363-6.096,10.605c-13.459,0-26.916,0-40.375-0.003
			c8.379-19.032,16.752-38.069,25.129-57.104c15.639,0.001,31.275-0.003,46.918-0.002
			C705.615,290.148,704.402,292.27,701.978,296.512z M735.126,265.766c-2.742,2.762-7.463,4.612-14.035,5.502
			c-6.746,0.912-15.729,1.375-26.695,1.375c-10.971,0-20.248-0.463-27.576-1.377c-7.229-0.901-13.229-2.802-17.836-5.646
			c-4.559-2.814-8.211-6.953-10.859-12.298c-2.689-5.432-5.008-12.599-7.088-21.911c-1.752-7.862-3.508-15.723-5.262-23.585
			c-4.799-21.523-9.6-43.047-14.402-64.571l-7.262-32.545h16.912h17.42l30.137,98.82l6.828,22.391
			c0.725,2.376,1.535,3.96,2.479,4.842c1.012,0.943,2.857,1.401,5.646,1.401c3.051,0,4.645-0.534,5.168-1.729
			c0.445-1.013,0.279-2.638-0.525-5.115c-2.301-7.094-4.6-14.189-6.898-21.284c-4.758-14.678-9.518-29.356-14.273-44.035
			l-17.924-55.292h33.371l10.559,26.139c10.08,24.956,20.162,49.91,30.246,74.863c2.734,6.764,5.467,13.528,8.199,20.292
			c3.711,9.187,5.949,16.553,6.65,21.893C738.787,259.088,737.785,263.082,735.126,265.766z M733.001,176.244l-29.293-65.536h34.174
			c18.35,34.707,36.701,69.405,55.053,104.105c9.75,18.437,19.498,36.879,29.25,55.314H774.96
			c-8.543-19.122-17.092-38.244-25.639-57.366C743.88,200.588,738.443,188.417,733.001,176.244z M755.925,308.357l9.168-29.25
			h205.682l-98.516-135.806l-22.557-31.095l44.045,0.037l-24.926,15.806l7.02,8.543l141.355,172.013L755.925,308.357z"/>
		<path d="M333.536,155.255l2.086-5.955c1.123-3.198,1.015-4.391,0.835-5.011c-0.481-1.662-2.754-1.854-4.421-1.854
			c-2.385,0-4.015,0.465-4.981,1.423c-0.877,0.871-1.723,2.429-2.587,4.765l-1.312,3.55l-15.135,40.949h12.247L333.536,155.255z"/>
	</g>
	<g>
		<path fill="#8EE0E8" d="M353.888,311.607c-10.666,0-15.998-0.002-26.664-0.002c-3.227-6.037-4.841-9.056-8.066-15.093
			c10.526,0.003,21.055,0.003,31.579,0.003c-1.882-4.242-2.82-6.363-4.701-10.605c-15.64,0-31.279-0.002-46.919-0.002
			c10.942,19.035,21.885,38.072,32.828,57.107c4.826,0,7.238,0,12.065,0c-4.448-8.324-6.672-12.484-11.12-20.805
			c10.327,0,15.489,0.001,25.813,0.001C356.779,317.971,355.814,315.85,353.888,311.607z"/>
		<path fill="#8EE0E8" d="M355.792,285.909c7.92,19.034,15.837,38.069,23.755,57.106c4.827,0,7.24,0,12.067,0
			c-7.149-19.037-14.303-38.072-21.452-57.106C364.415,285.909,361.541,285.909,355.792,285.909z"/>
		<path fill="#8EE0E8" d="M427.633,285.907c2.48,11.56,4.96,23.114,7.439,34.673c-12.31-12.08-25.188-23.482-38.307-34.671
			c-4.754,0-7.131,0-11.885,0c6.367,19.034,12.735,38.069,19.096,57.106c4.771,0,7.151,0,11.921,0
			c-3.402-11.562-6.808-23.115-10.217-34.673c12.443,11.187,24.631,22.589,36.212,34.673c3.965,0,5.944,0,9.906,0
			c-3.327-19.037-6.651-38.074-9.979-57.108C436.146,285.907,433.307,285.907,427.633,285.907z"/>
		<path fill="#8EE0E8" d="M476.048,285.909c-7.322,18.71-13.84,37.599-18.734,57.106c4.944,0,7.416,0,12.361,0
			c1.284-4.896,1.961-7.343,3.396-12.238c10.076,0,15.112,0.002,25.189,0.002c2.018,4.896,2.985,7.342,4.854,12.236
			c5.063,0,7.596,0,12.661,0c-7.511-19.563-16.016-38.447-25.54-57.106C484.562,285.909,481.723,285.909,476.048,285.909z
			 M476.23,320.744c2.793-8.744,4.313-13.116,7.588-21.861c4.312,8.745,6.347,13.117,10.175,21.861
			C486.887,320.744,483.335,320.744,476.23,320.744z"/>
		<path fill="#8EE0E8" d="M561.078,320.58c-7.576-12.066-15.998-23.43-24.73-34.671c-4.752,0-7.129,0-11.885,0
			c-1.084,19.034-2.164,38.071-3.253,57.106c4.769,0,7.149,0,11.919,0c1.119-11.562,2.236-23.115,3.355-34.674
			c8.064,11.256,15.805,22.615,22.637,34.674c3.963,0,5.941,0,9.904,0c4.137-19.033,8.246-38.072,12.369-57.108
			c-5.678,0-8.52,0-14.189,0C565.166,297.468,563.117,309.021,561.078,320.58z"/>
		<path fill="#8EE0E8" d="M639.878,287.541c-3.66-1.738-8.238-2.609-13.635-2.609c-6.402,0-12.592,1.267-18.406,3.795
			c-5.813,2.528-10.715,6.035-14.693,10.521s-6.584,9.563-7.979,15.216c-1.396,5.655-1.309,10.729,0.094,15.218
			c1.404,4.484,3.898,7.993,7.496,10.521c3.596,2.528,7.963,3.794,13.26,3.792c4.502,0,8.889-0.871,13.246-2.609
			c4.359-1.738,8.49-4.271,12.42-7.587c-1.898-3.135-2.889-4.696-4.953-7.831c-5.475,4.516-10.787,6.771-16.182,6.771
			c-3.342,0-6.057-0.773-8.207-2.325c-2.156-1.548-3.572-3.713-4.26-6.485c-0.688-2.773-0.557-5.927,0.465-9.462
			c1.012-3.532,2.701-6.692,5.111-9.467c2.412-2.771,5.318-4.935,8.717-6.483c3.396-1.551,6.986-2.324,10.721-2.324
			c6.027,0,10.299,2.229,12.572,6.688c4.729-3.135,7.129-4.699,12.018-7.832C646.148,291.782,643.539,289.281,639.878,287.541z"/>
		<path fill="#8EE0E8" d="M701.978,296.512c2.426-4.242,3.639-6.363,6.063-10.604c-15.643-0.001-31.279,0.003-46.918,0.002
			c-8.377,19.033-16.75,38.07-25.129,57.104c13.459,0.002,26.916,0.002,40.375,0.002c2.438-4.242,3.658-6.363,6.096-10.604
			c-9.795,0-19.59,0-29.389-0.003c2.537-5.285,3.809-7.932,6.346-13.219c10.453,0,15.682,0,26.135,0
			c2.309-4.11,3.461-6.168,5.77-10.278c-10.785,0-16.18,0-26.965,0c2.383-4.958,3.568-7.437,5.949-12.396
			C680.867,296.511,691.421,296.512,701.978,296.512z"/>
	</g>
	<g>
		<path fill="#FF7300" d="M702.396,358.193H303.947l-19.617-42.039H70.151l39.083,29.494c0.418,0.494,0.854,1.011,1.291,1.526
			c0.282,0.334,0.556,0.657,0.845,1c12.5,14.798,31.77,37.609,51.042,60.422c6.132,7.253,12.262,14.503,18.176,21.498
			c1.929,2.281,3.835,4.537,5.71,6.755c3.866,4.465,7.56,8.813,11.137,12.874c2.532,2.894,4.96,5.665,7.272,8.306
			c0.944,1.078,1.874,2.14,2.776,3.17c3.107,3.559,6.011,6.771,8.555,9.646c2.547,2.871,4.779,5.363,6.633,7.401
			c2.765,3.043,4.643,5.109,5.42,5.967c0.265,0.291,0.405,0.445,0.405,0.445l0.074-0.064l0.077-0.065c0,0-1.979-2.45-5.442-6.738
			c-1.73-2.146-3.852-4.732-6.298-7.689c-2.449-2.954-5.179-6.317-8.218-9.934c-0.585-0.698-1.188-1.418-1.792-2.139
			c-2.525-3.014-5.199-6.205-8.004-9.552c-3.465-4.155-7.196-8.474-11.013-12.979c-1.978-2.278-3.991-4.597-6.027-6.943
			c-5.934-6.835-12.08-13.914-18.227-20.995c-19.446-22.382-38.883-44.753-51.594-59.384c-0.294-0.339-0.582-0.67-0.869-1
			c-0.293-0.338-0.583-0.671-0.869-1h139.249h8.74h1.649l20.816,38.846h444.843l20.816-38.846h23.676h8.742H895.99
			c-0.176,0.215-0.453,0.549-0.824,1c-0.238,0.291-0.508,0.616-0.824,1c-2.771,3.367-8.424,10.229-15.783,19.17
			c-10.582,12.895-24.697,30.09-38.809,47.281c-0.781,0.951-1.559,1.898-2.338,2.849c-2.779,3.386-5.551,6.764-8.287,10.097
			c-2.297,2.797-4.553,5.547-6.785,8.266c-1.111,1.354-2.229,2.716-3.318,4.044c-3.254,4.072-6.439,7.978-9.389,11.739
			c-1.74,2.209-3.418,4.338-5.037,6.392c-1.131,1.436-2.236,2.839-3.301,4.187c-2.588,3.271-4.9,6.313-6.982,8.99
			c-2.08,2.677-3.881,5.02-5.348,6.963c-2.932,3.883-4.609,6.104-4.609,6.104l0.152,0.123l0.002,0.002c0,0,0.012-0.013,0.014-0.015
			c0.064-0.075,1.863-2.155,4.988-5.771c1.594-1.843,3.508-4.094,5.689-6.688c2.18-2.597,4.674-5.497,7.328-8.712
			c1.373-1.658,2.809-3.39,4.295-5.181c1.391-1.678,2.826-3.407,4.303-5.188c3.063-3.67,6.213-7.604,9.516-11.638
			c1.398-1.758,2.824-3.55,4.26-5.352c1.764-2.214,3.545-4.452,5.348-6.716c2.719-3.414,5.473-6.871,8.234-10.34
			c0.838-1.051,1.674-2.101,2.512-3.151c13.855-17.4,27.711-34.802,38.105-47.853c7.313-9.214,12.895-16.247,15.559-19.603
			c0.305-0.384,0.568-0.715,0.793-1c0.381-0.479,0.65-0.818,0.795-1h0.162l39.781-30.021h-214.18L702.396,358.193z"/>
		<polygon fill="#FF7300" points="152.712,136.367 152.028,137.2 11.173,308.605 272.444,308.357 263.275,279.107 57.594,279.107 
			178.667,112.208 134.621,112.244 159.547,128.05 158.83,128.924 		"/>
		<polygon fill="#FF7300" points="875.841,136.594 868.822,128.05 893.748,112.244 849.703,112.208 872.259,143.303 
			970.775,279.107 765.093,279.107 755.925,308.357 1017.195,308.605 		"/>
		<polygon fill="#FF7300" points="501.049,108.905 501.049,43.196 501.049,7.395 478.744,43.667 456.361,80.065 455.431,81.576 
			456.567,82.257 		"/>
		<polygon fill="#FF7300" points="530.685,42.57 509.049,7.395 509.049,43.027 509.049,108.905 554.677,81.576 		"/>
		<polygon fill="#FF7300" points="456.818,90.363 500.549,152.307 500.549,115.931 456.917,90.202 456.55,89.985 		"/>
		<polygon fill="#FF7300" points="510.799,152.307 554.808,89.985 510.799,115.931 		"/>
		<path fill="#FF7300" d="M329.389,474.766c-0.959-1.917-2.002-4.098-3.211-6.443c-1.202-2.35-2.505-4.893-3.883-7.581
			c-0.469-0.927-0.963-1.87-1.464-2.821c-0.957-1.814-1.957-3.673-2.962-5.59c-2.877-5.292-5.991-10.876-9.105-16.492
			c-0.295-0.531-0.589-1.061-0.884-1.593c-6.8-12.312-13.6-24.626-18.701-33.859c-3.391-6.103-6.026-10.844-7.426-13.362
			c-0.214-0.387-0.402-0.724-0.556-1c-0.361-0.65-0.559-1.007-0.559-1.007l-0.175,0.093c0,0,0.17,0.326,0.475,0.914
			c0.143,0.274,0.315,0.605,0.519,1c1.311,2.524,3.84,7.397,7.106,13.691c4.884,9.35,11.396,21.816,17.908,34.287
			c0.146,0.279,0.29,0.557,0.436,0.836c3.102,5.96,6.176,11.915,9.129,17.479c0.858,1.563,1.688,3.104,2.506,4.605
			c0.693,1.274,1.377,2.523,2.063,3.729c1.481,2.634,2.885,5.125,4.178,7.424c1.287,2.301,2.531,4.377,3.601,6.233
			c1.072,1.855,2.021,3.47,2.82,4.784c1.576,2.646,2.51,4.142,2.51,4.142l0.176-0.096c0,0-0.729-1.604-2.064-4.379
			C331.166,478.366,330.345,476.685,329.389,474.766z"/>
		<path fill="#FF7300" d="M184.172,444.601c-2.329-2.733-4.924-5.848-7.816-9.194c-0.022-0.025-0.045-0.054-0.067-0.078
			c-2.868-3.326-5.971-6.929-9.253-10.737c-3.296-3.851-6.848-7.84-10.481-12.005c-7.369-8.238-15.231-17.026-23.092-25.813
			c-22.6-25.239-45.199-50.48-56.137-62.697c-1.338-1.494-2.491-2.781-3.458-3.862c-2.133-2.383-3.327-3.716-3.327-3.716
			l-0.151,0.131c0,0,0.866,0.996,2.425,2.791c0.852,0.98,1.911,2.198,3.164,3.641c10.284,11.832,33.279,38.293,56.284,64.77
			c7.738,8.896,15.476,17.793,22.73,26.135c3.68,4.125,7.196,8.146,10.603,11.896c3.395,3.76,6.606,7.316,9.569,10.6
			c0.035,0.038,0.067,0.074,0.103,0.112c2.919,3.237,5.652,6.169,8.046,8.788c2.426,2.648,4.552,4.949,6.32,6.831
			c3.253,3.466,5.201,5.539,5.492,5.849c0,0.001,0.001,0.001,0.001,0.002c0.024,0.025,0.058,0.063,0.058,0.063l0.069-0.063
			l0.002-0.002l0.079-0.069c0,0-1.882-2.27-5.174-6.245C188.517,449.736,186.5,447.338,184.172,444.601z"/>
		<path fill="#FF7300" d="M713.429,407.054c-4.396,7.962-10.061,18.216-15.896,28.783c-0.934,1.688-1.867,3.381-2.805,5.076
			c-3.191,5.769-6.402,11.515-9.387,16.983c-0.197,0.365-0.404,0.739-0.602,1.102c-1.533,2.92-3.063,5.717-4.428,8.411
			c-1.379,2.688-2.682,5.231-3.885,7.581c-1.209,2.343-2.252,4.526-3.211,6.443c-0.957,1.919-1.775,3.599-2.432,4.993
			c-1.336,2.775-2.066,4.379-2.066,4.379l0.178,0.096c0,0,0.934-1.494,2.51-4.142c0.801-1.314,1.748-2.928,2.818-4.784
			c1.074-1.856,2.318-3.931,3.604-6.233c1.293-2.299,2.699-4.789,4.178-7.424c1.496-2.627,2.98-5.445,4.568-8.335
			c0.363-0.684,0.732-1.391,1.098-2.083c2.756-5.228,5.598-10.728,8.467-16.23c1.018-1.949,2.035-3.896,3.047-5.833
			c5.461-10.456,10.74-20.563,14.861-28.454c4.859-9.363,8.1-15.605,8.1-15.605l-0.176-0.093
			C721.97,391.685,718.554,397.83,713.429,407.054z"/>
		<path fill="#FF7300" d="M933.531,319.415c-0.787,0.921-1.797,2.104-3.008,3.522c-3.273,3.832-7.994,9.361-13.691,16.032
			c-11.176,13.125-26.072,30.624-40.969,48.123c-7.447,8.75-14.898,17.499-21.881,25.702c-3.439,4.145-6.805,8.117-9.92,11.946
			c-0.115,0.14-0.227,0.273-0.34,0.414c-3,3.668-5.846,7.143-8.475,10.354c-0.064,0.08-0.127,0.156-0.193,0.235
			c-0.023,0.031-0.049,0.061-0.072,0.091c-2.629,3.203-4.998,6.191-7.127,8.822c-2.199,2.727-4.104,5.107-5.658,7.088
			c-3.107,3.954-4.885,6.215-4.885,6.215l0.07,0.063l0.002,0.001l0.078,0.065c0,0,0.033-0.037,0.061-0.065c0,0,0,0,0.002-0.001
			c0.293-0.328,2.139-2.394,5.211-5.824c1.68-1.873,3.693-4.164,5.996-6.806c2.297-2.639,4.924-5.594,7.729-8.864
			c2.637-3.069,5.488-6.387,8.49-9.879c0.195-0.227,0.383-0.446,0.58-0.675c3.23-3.736,6.561-7.739,10.045-11.845
			c6.865-8.303,14.189-17.16,21.512-26.014c14.645-17.71,29.293-35.42,40.275-48.7c6.105-7.41,11.074-13.438,14.283-17.328
			c1.146-1.393,2.066-2.508,2.732-3.316c0.814-0.986,1.256-1.521,1.256-1.521l-0.148-0.128
			C935.486,317.124,934.792,317.936,933.531,319.415z"/>
	</g>
</g>
</svg>
